REM DIRINDEX 1\3,1\2\4,1\2\5,1\2\6
REM DIRNAME cjc137,folder01,folder02,folder03,folder04,folder05
TITLE ""
FILE "062.mp3" MP3
  TRACK 01 AUDIO
    TITLE "4:cjc137_2528"
    INDEX 01 00:00:00
  TRACK 02 AUDIO
    TITLE "0:"
    INDEX 01 00:01:13
  TRACK 03 AUDIO
    TITLE "6:cjc137_2529"
    INDEX 01 00:01:21
  TRACK 04 AUDIO
    TITLE "0:"
    INDEX 01 00:02:32
  TRACK 05 AUDIO
    TITLE "5:cjc137_2530"
    INDEX 01 00:02:40
  TRACK 06 AUDIO
    TITLE "0:"
    INDEX 01 00:03:53
  TRACK 07 AUDIO
    TITLE "4:cjc137_2531"
    INDEX 01 00:04:60
  TRACK 08 AUDIO
    TITLE "0:"
    INDEX 01 00:06:04
  TRACK 09 AUDIO
    TITLE "6:cjc137_2532"
    INDEX 01 00:06:08
  TRACK 10 AUDIO
    TITLE "0:"
    INDEX 01 00:07:11
  TRACK 11 AUDIO
    TITLE "5:cjc137_2533"
    INDEX 01 00:07:17
  TRACK 12 AUDIO
    TITLE "0:"
    INDEX 01 00:08:36
  TRACK 13 AUDIO
    TITLE "4:cjc137_2534"
    INDEX 01 00:09:42
  TRACK 14 AUDIO
    TITLE "0:"
    INDEX 01 00:10:55
  TRACK 15 AUDIO
    TITLE "6:cjc137_2535"
    INDEX 01 00:10:63
  TRACK 16 AUDIO
    TITLE "0:"
    INDEX 01 00:12:05
  TRACK 17 AUDIO
    TITLE "5:cjc137_2536"
    INDEX 01 00:12:12
  TRACK 18 AUDIO
    TITLE "0:"
    INDEX 01 00:13:24
  TRACK 19 AUDIO
    TITLE "4:cjc137_2537"
    INDEX 01 00:14:29
  TRACK 20 AUDIO
    TITLE "0:"
    INDEX 01 00:15:34
  TRACK 21 AUDIO
    TITLE "6:cjc137_2538"
    INDEX 01 00:15:40
  TRACK 22 AUDIO
    TITLE "0:"
    INDEX 01 00:16:61
  TRACK 23 AUDIO
    TITLE "5:cjc137_2539"
    INDEX 01 00:16:65
  TRACK 24 AUDIO
    TITLE "0:"
    INDEX 01 00:17:69
  TRACK 25 AUDIO
    TITLE "4:cjc137_2540"
    INDEX 01 00:19:01
  TRACK 26 AUDIO
    TITLE "0:"
    INDEX 01 00:20:14
  TRACK 27 AUDIO
    TITLE "6:cjc137_2541"
    INDEX 01 00:20:24
  TRACK 28 AUDIO
    TITLE "0:"
    INDEX 01 00:21:37
  TRACK 29 AUDIO
    TITLE "5:cjc137_2542"
    INDEX 01 00:21:45
  TRACK 30 AUDIO
    TITLE "0:"
    INDEX 01 00:22:58
  TRACK 31 AUDIO
    TITLE "4:cjc137_2543"
    INDEX 01 00:23:65
  TRACK 32 AUDIO
    TITLE "0:"
    INDEX 01 00:25:05
  TRACK 33 AUDIO
    TITLE "6:cjc137_2544"
    INDEX 01 00:25:11
  TRACK 34 AUDIO
    TITLE "0:"
    INDEX 01 00:26:48
  TRACK 35 AUDIO
    TITLE "5:cjc137_2545"
    INDEX 01 00:26:54
  TRACK 36 AUDIO
    TITLE "0:"
    INDEX 01 00:27:69
  TRACK 37 AUDIO
    TITLE "4:cjc137_2546"
    INDEX 01 00:28:74
  TRACK 38 AUDIO
    TITLE "0:"
    INDEX 01 00:30:16
  TRACK 39 AUDIO
    TITLE "6:cjc137_2547"
    INDEX 01 00:30:24
  TRACK 40 AUDIO
    TITLE "0:"
    INDEX 01 00:31:39
  TRACK 41 AUDIO
    TITLE "5:cjc137_2548"
    INDEX 01 00:31:45
  TRACK 42 AUDIO
    TITLE "0:"
    INDEX 01 00:32:62
  TRACK 43 AUDIO
    TITLE "4:cjc137_2549"
    INDEX 01 00:33:69
  TRACK 44 AUDIO
    TITLE "0:"
    INDEX 01 00:35:02
  TRACK 45 AUDIO
    TITLE "6:cjc137_2550"
    INDEX 01 00:35:08
  TRACK 46 AUDIO
    TITLE "0:"
    INDEX 01 00:36:23
  TRACK 47 AUDIO
    TITLE "5:cjc137_2551"
    INDEX 01 00:36:31
  TRACK 48 AUDIO
    TITLE "0:"
    INDEX 01 00:37:38
  TRACK 49 AUDIO
    TITLE "4:cjc137_2552"
    INDEX 01 00:38:43
  TRACK 50 AUDIO
    TITLE "0:"
    INDEX 01 00:39:45
  TRACK 51 AUDIO
    TITLE "6:cjc137_2553"
    INDEX 01 00:39:52
  TRACK 52 AUDIO
    TITLE "0:"
    INDEX 01 00:40:50
  TRACK 53 AUDIO
    TITLE "5:cjc137_2554"
    INDEX 01 00:40:58
  TRACK 54 AUDIO
    TITLE "0:"
    INDEX 01 00:41:59
  TRACK 55 AUDIO
    TITLE "4:cjc137_2555"
    INDEX 01 00:42:66
  TRACK 56 AUDIO
    TITLE "0:"
    INDEX 01 00:44:14
  TRACK 57 AUDIO
    TITLE "6:cjc137_2556"
    INDEX 01 00:44:24
  TRACK 58 AUDIO
    TITLE "0:"
    INDEX 01 00:45:55
  TRACK 59 AUDIO
    TITLE "5:cjc137_2557"
    INDEX 01 00:45:61
  TRACK 60 AUDIO
    TITLE "0:"
    INDEX 01 00:47:09
  TRACK 61 AUDIO
    TITLE "4:cjc137_2558"
    INDEX 01 00:48:16
  TRACK 62 AUDIO
    TITLE "0:"
    INDEX 01 00:49:16
  TRACK 63 AUDIO
    TITLE "6:cjc137_2559"
    INDEX 01 00:49:21
  TRACK 64 AUDIO
    TITLE "0:"
    INDEX 01 00:50:25
  TRACK 65 AUDIO
    TITLE "5:cjc137_2560"
    INDEX 01 00:50:31
  TRACK 66 AUDIO
    TITLE "0:"
    INDEX 01 00:51:32
  TRACK 67 AUDIO
    TITLE "4:cjc137_2561"
    INDEX 01 00:52:37
  TRACK 68 AUDIO
    TITLE "0:"
    INDEX 01 00:53:51
  TRACK 69 AUDIO
    TITLE "6:cjc137_2562"
    INDEX 01 00:53:57
  TRACK 70 AUDIO
    TITLE "0:"
    INDEX 01 00:54:70
  TRACK 71 AUDIO
    TITLE "5:cjc137_2563"
    INDEX 01 00:55:01
  TRACK 72 AUDIO
    TITLE "0:"
    INDEX 01 00:56:14
  TRACK 73 AUDIO
    TITLE "4:cjc137_2564"
    INDEX 01 00:57:21
  TRACK 74 AUDIO
    TITLE "0:"
    INDEX 01 00:58:26
  TRACK 75 AUDIO
    TITLE "6:cjc137_2565"
    INDEX 01 00:58:30
  TRACK 76 AUDIO
    TITLE "0:"
    INDEX 01 00:59:55
  TRACK 77 AUDIO
    TITLE "5:cjc137_2566"
    INDEX 01 00:59:61
  TRACK 78 AUDIO
    TITLE "0:"
    INDEX 01 01:00:66
  TRACK 79 AUDIO
    TITLE "4:cjc137_2567"
    INDEX 01 01:01:72
  TRACK 80 AUDIO
    TITLE "0:"
    INDEX 01 01:03:20
  TRACK 81 AUDIO
    TITLE "6:cjc137_2568"
    INDEX 01 01:03:27
  TRACK 82 AUDIO
    TITLE "0:"
    INDEX 01 01:04:25
  TRACK 83 AUDIO
    TITLE "5:cjc137_2569"
    INDEX 01 01:04:31
  TRACK 84 AUDIO
    TITLE "0:"
    INDEX 01 01:05:54
